<svg id="Layer_1" data-name="Layer 1" xmlns="http://www.w3.org/2000/svg" viewBox="0 0 594.39 688.38"><defs><style>.cls-1{fill:#fc0;}.cls-1,.cls-2,.cls-3{fill-rule:evenodd;}.cls-2{fill:#fff;}</style></defs><g id="Character_reading" data-name="Character/reading"><path id="Accent" class="cls-1" d="M372.12,194.47q-1.06,17.29-2.12,34.6c4.54-1.31,33.41-9.81,31.63-1.19-1.28,6.17-9.4,12.86-13.53,17.16q-5.72,5.94-11.75,11.56,11.08-4.25,22.34-8c5.68-1.9,11.39-3.75,17.21-5.17,2.16-.53,8-2.68,10-1.21,5.36,3.86-23.72,32.27-27.71,36.27a185.94,185.94,0,0,1,17.27-7c4.24-1.47,17.32-7.11,21.07-2.3,4,5.15-5.93,17-8.68,20.72a191.79,191.79,0,0,1-12.72,15.45c18.66,16.77,40.6,31.69,63.94,41,17.11,6.8,33.93,8.53,52,4.8,18.55-3.83,36.35-11.19,53.26-19.59a305.41,305.41,0,0,0,29.08-16.28q-5.77-7-11.22-14.32C597,294,590.65,286.37,587.7,278.12c-2.9-8.07,8-6.49,13.16-6.05a173.55,173.55,0,0,1,22.44,3.59q-7.83-5.45-15.37-11.31c-6.55-5.09-15.29-10.83-19.58-18.15-3.77-6.43,4.51-4.81,8.33-4,9.12,2,18,5.43,26.7,8.77q9.55,3.68,19,7.71-5.85-5.09-11.27-10.61c-4.86-4.94-11.42-11-13.6-17.78-4.43-13.86,25.41-3.4,30.51-1.26L645.18,186,526.61,217.55c-4.27,1.14-9.62,3.61-14.07,3.75-4,.12-8.91-1.7-12.84-2.45l-71.52-13.67-56.06-10.71" transform="translate(-215 -39.62)"/><g id="Ink"><path id="ink-2" data-name="ink" class="cls-2" d="M796.9,688.22a60.39,60.39,0,0,1-14,5.59c-2.78.74-7.38,3-9.83.93-1.17-1-1.44-3.3-2.13-4.63a38.4,38.4,0,0,0-4.12-5.78c-3.54-4.51-7.22-8.86-11.07-13.1-1.83-2-5.17-6.7-8.38-6.39-4,.38-3.92,5.93-2.91,8.77,3.2,9,12.88,16.9,19.21,23.7-1.61,2.47-10.44,2.18-12.9,1.6-3.74-.88-4.12-3.55-5.83-6.6-4-7.13-12.11-11.12-18.78-15.31-2.43-1.53-7.59-5.77-10.76-4.7-3,1-2.87,4.84-1.92,7.35,1.45,3.78,5.56,6.41,8.6,8.8A80.56,80.56,0,0,1,733.2,699c-4.87.4-9.72,1.09-14.57,1.49-5.87.48-10.77-2.74-16.17-4.57-5-1.69-10-3.13-15-5.08-5.55-2.2-11.36-3-17-4.89-21.95-7.56-43.45-17.07-64.6-26.65-10.08-4.57-20-9.14-30.46-12.71-7.65-2.61-19.68-7.8-21.5-16.92-1-4.81,2.55-10,3.07-14.8a43.38,43.38,0,0,0-1.6-17.33c-1.52-4.78-4-9.21-6-13.81-2.32-5.35-.25-5.27,4.25-5.87,5.38-.73,11.65-3.76,16.71-5.73a111,111,0,0,0,16.93-8.71,62,62,0,0,0,12.86-10.9c3.9-4.2,6.43-9.18,10.21-13.49,13.94,17.14,27.19,34.55,42,51a127.54,127.54,0,0,0,23.21,20c3.59,2.46,7.16,5.27,11.08,7.21,4.9,2.43,10.38,3.94,15.42,6.16a470.83,470.83,0,0,1,55.76,28.79c8.72,5.32,16,11.4,23.71,18.07,2.39,2.07,22,14.16,15.32,18M570.33,547.77c-3.12,1.42-6.1,3.26-9.43,4.16,1-5.74,6.31-14.41,13.18-13.45,2.63.36,4.61,2.4,3.45,5.21-1,2.56-5,3.08-7.2,4.08M353.08,392c-3.54,2-6.84,3.09-8.91-1.1,1.53-.31,8.51-1.24,8.91,1.1m-5.9-11.85c-2.73-.83-.54-1.7.4-2.7.73-.78,3.16-3.52,4-4,3.75-2,6.65,5.41,8.44,7.81-4.25-.38-8.71.11-12.85-1.14m29.24,25.6c-5.18.87-4.61-5.61-4.45-8.9,1.09,1.34,8.49,8.21,4.45,8.9m17.18-11.21c-6.32,1.07-10.5-9.85-9.36-14.62,1-4.21,5.89-6.56,9.79-7.18s9,.22,10.16,4.58c1,3.85-6.38,16.51-10.59,17.22M543.17,559.33c-4.54,1.39-9,1.57-13.55,2.94-5.18,1.55-10,1.42-15.16,2.47-2.11.43-7.81,3.51-9.87,2.82s-5-7-6.16-8.66c9.18-3.81,17-8.74,23.06-16.78,4.81-6.39,10-16,7-24.22-3.42-9.31-15.19-11.33-23-7.44A45.06,45.06,0,0,0,495,517.38c-3.5,3.2-4.88,6.7-7.15,10.65s-3.9,1.77-6.19-1.62c-1.95-2.9-1.7-5.83-4.15-8.69-1.24-1.46-3.18-2.87-3.83-4.75-.41-1.2.46-3.32-.32-4.26-1.11-1.32-2.44.23-3.37-.95-.67-.85-.45-2.81-1.14-3.88a9.51,9.51,0,0,0-2-1.56c-.89-.45-1.06-1-.49-1.67-.71-1.31,0-1.76-1.55-3.36a41,41,0,0,1-6.24-7.85c-.77-1.35-.7-3.36-1.66-4.53-1.32-1.6-3.51-1.36-4.65-3.35-1-1.77-.33-4.86-2-6.47l-2.63-.74a3.8,3.8,0,0,1-1.16-2.34c-.93-1.43-1.11-3.1-2.28-4.6-2.23-2.88-5.24-5.54-7.22-8.58s-1-3.72,2.64-4.86a43.79,43.79,0,0,0,9.23-3.74c13.94-8.12,27.15-29.63,5-36.2-8.21-2.44-14.95-9-24.06-6.42a26.06,26.06,0,0,0-10.63,6.32c-2,1.95-3.92,7.17-6.41,8.17-4.49,1.8-2.6-2.69-3.87-4.76-.61-1-3.06-2.12-4-3a17.48,17.48,0,0,1-2.84-3.68,22.25,22.25,0,0,0-4.19-5.72c-.75-.75-4.48-4.58-1.11-4.08-1.37-4.15.62-4.77,3.37-7.8,3.22-3.56,6.55-8.51,6.57-13.49,0-9.58-11.31-13.87-18.44-8.18-1.45,1.15-10,12.32-8.27,5.2.95-3.84,9.71-13.87,13.77-11.27-4.55-6.64-15,9.47-17.45,12.76-2.07-3.82-2.22-6.81-5.66-9.78-2.8,4.49-1.32-.41-1.94-1.41-1.33-2.15-.6.31-1.32-.46-.9-.95-2.32-1.7-3.28-3-1.64,2.22-1-.17-1.48-1-1.18-1.95-.73-3.07-2.74-4.76-1.47-1.23-4.35-3.14-6.33-3.32-2.27-.2-2.9.67-5.22,0-2.95-.82-6.66-2.08-5.23,2.85,1,3.58,5.25,5.62,6.17,9.28S346.56,374,344.79,377c-2.27,3.87-4.13,3.56-8.24,4.43-2.63.56-6.14,1.76-3.89,5,1.61,2.27,5.39,1.79,7.51,3.14,3,1.9,2.94,6.56,6.74,7.37,4.19.9,6.6-3.77,10.13-4.89,2.51-.81,10.29-.72,12.27,1.17,2.69,2.57.37,7.48,1,10.67,1,4.74,4.21,5,8.27,5.18,5,.18,6.74,5,9.42,8.77,6.28,8.9,11.74,18.38,18.18,27.16,2.84,3.89,7,7.34,9.34,11.56,2.88,5.21-1.12,8.22-4.57,12-4.5,4.88-7.87,10.44-11.78,15.78-3.48,4.75-7.8,3.57-13.35,3.57,1.24-2.55,2.73-4.15,5.77-3.84-3.18-3.88-5.73.56-7.79,3-3,3.56-6.89,4.42-10.72,6.76-1.36.83-8.76,6.2-6.51,8,.26.21,12.5-7.84,13.89-8.58,0,3-.65,6.06-.23,9,.3,2.17,1.83,4.43,1.5,6.68-.61,4.26-6.11,7.61-8.47,10.92-1.78,2.5-1.35,4.47-2.25,7.15-.83,2.44-.4,1.7-2.45,2.45-4.19,1.54-11.23.71-15-1.47-2.35-1.36-4.15-3.5-6.06-5.39-1.44-1.43-5.06-3.86-5.46-5.85-.69-3.44,6.12-9.81,7.47-13.35,3.81-10-2.72-17.76-12.88-18.32,3.13-2.42,7-.6,10.31.32-5.64-7.82-15.28-1.38-20.06,3.93-3.28-8.27-4.85-17-6.85-25.61-1.36-5.87-6.54-16.35-4.23-22.4,1.12-2.92,4.27-4.55,6.45-6.58a40,40,0,0,0,6.41-7.9c4.27-6.72,6.74-15.19.86-21.81l5.36-.88c-2.91-2.73-7.49-1.4-11.26-2.21-2.39-.51-9.28-.18-10.87-1.53-1.92-1.63-.69-9.12-.62-11.34.15-5.18.59-10.16,1.16-15.31.54-4.86.43-10.12,1.44-14.9.81-3.88,3.42-5.06,6.43-7.34,7.19-5.47,13.05-12.12,10.6-21.53l2.61-.42c-2.82-2-6.46-1.29-9.59-2.37,2.88-8.09,9.23-22.31,19.55-23.08.36,3.62.12,7.92,2.56,10.92,2.78,3.4,7.65,3.75,11.41,1.94a18.61,18.61,0,0,0,8.2-8.53c1.06-2.32.87-6.25,2.74-8.09,2.51-2.46,19.79-1,19.26,3.19-.31,2.45-4.93,6.56-6.23,8.73a40,40,0,0,0-5.12,12.83c-1.32,6.92-.55,16.07,6.48,19.71,8,4.14,17.75-1.13,24.31-5.67a114.93,114.93,0,0,0,10.38-8.16,55.48,55.48,0,0,0,5.06-4.88c1.14-1.29,2.05-3.38,3.45-4.34,3.32-2.29,6.57,1.59,9.38,3.55a144.23,144.23,0,0,0,14,8.89c9.95,5.39,19.06,12.54,27.86,19.63s18,14.48,25.17,23.37c-4.35,2.68-3.57,3.37-5.51,8.14-1.37,3.38-3.26,6.26-3.48,10a12.84,12.84,0,0,0,10.11,13.46,15.91,15.91,0,0,0,10.18-1.29c2.55-1.12,5.09-3.89,7.74-4.58,4.95-1.27,8.9,8.07,11.68,11.36,12.3,14.61,25.31,28.64,36.9,43.85,1.29,1.69,5.1,5,5.41,7.21.45,3.2-4.59,6.25-6.68,8.09-1.1,1-12.74,11.91-8.83,13.65,1.11.49,4.38-6.22,5.19-6.8,3-2.15.74,2.07.56,4.2-.45,5.29,3.18,8.18,8.3,7.51,5.45-.72,10.31-5,13.69-9.09,4.23,4.9,10.85,12.3,12.07,18.85.78,4.18-2.84,14.42,3.92,15.27,1,.13,4.76-2.63,5.46-1.06.58,1.31-3.46,3.55-4,4a38.74,38.74,0,0,0-6,6.09c-2.36,2.64-5.58,4.86-8.23,7.39s-8.32,9.9-12,6.4c-1.86-1.76-1.37-4.05-4.34-5.08-2.7-.94-6.12.25-8.63,1.29-2.83,1.17-12.14,5.45-13.17,9-1.43,4.85,6.27-1,7.64-1.84-1.56,4-2.43,9.7-6.4,12-3.3,1.92-8.05,3-11.67,4.16m-52.77-30c2.64-8.49,18.22-23.63,28.07-18.89-11.48,2.4-20.58,10.26-28.07,18.89m5.83,24.32c-3.84-2.14-3.63-8.36-5-12-.76-2.09-2.3-3.61-1.85-5.93.53-2.71,4-5.73,5.83-7.69,5.8-6.16,16-14.58,25.35-13.17,11.88,1.8,3.83,17.75-.22,23.25-3.45,4.68-16.74,19.65-24.13,15.53m-27.72-10.38a329.08,329.08,0,0,1-38.34-4.37c-4.49-.84-8.26-.71-5.69-5.88.85-1.7,6-12.39,7.13-12.09.68.19.53,7.53.73,8.37.91,3.78,3.45,7.31,7.75,7.07,7-.39,11.56-9.48,15.26-14.36,3,4,5.11,8.42,8.09,12.34,1.43,1.87,6.39,6.23,5.07,8.92m-75.35-50.45c-2.15,4.95-6.49,9.65-9.5,14.14-1.71-3.61-2.91-11.9,1.14-14.57,1.53-1,9.73-2.7,8.36.43m44.57,14.73c.6-1.9,1.25-3.79,2-5.65,1.26,4,1.9,4.08-2,5.65m11,4.06c1.56,2.64,4.16,5.24,3.75,8.56-.31,2.52-2.59,5.09-4.21,6.85-2.69,2.9-8.64,8.47-12.54,4.61-3.25-3.21-2.12-12.06-.6-15.68,2.16-5.17,9.88-10.64,13.6-4.34m-7.64-5.42c.9-.36-1-6.13.76-6.7,1.52,3.46,3,4.4-.76,6.7m-24.55-77.66c-.58-2.13-1.91-2-1.43-4.68.31-1.72,1.68-3.57,2.72-4.93a25.93,25.93,0,0,1,7.76-6.68c6.23-3.59,14.8-5.08,20.38.54-5.22.83-21.22,6-21.32,13.12,5.8-1.12,10.37-6.95,16.19-8.79a23.85,23.85,0,0,1,14.71.19c13,4.36,7.61,15.61.26,22.91a44.43,44.43,0,0,1-15.3,9.81,10.53,10.53,0,0,1-6.87.63c-.49-.09-1.06-1-1.64-1.19-1.45-.48-1,1.15-2.22.41s-3.27-4.75-4-5.93c-1.13-1.87-1.66-3.69-3-5.41s-2.06-4-3.35-5.55c-.61-.75-2.3-.72-2.75-1.45-.68-1.09.18-1.89-.12-3m-20,83.88c3-5.14,8-9.5,11.93-14,.25,7.39-5.05,12.44-11.93,14m4,2.37c6.11-2.15,9.47-7.29,10.1-13.53.79-7.89,5.74-12,8.73-19.13,1.14-2.72,2.48-11.67,6.92-9.11,1.52.88,2.42,4.19,3.21,5.68,1.92,3.61,4.1,7.11,6.14,10.65,1.66,2.89,4.14,5.79,3.41,9.27-.64,3-2.69,6.25-3.89,9.11-2.84,6.75-6.57,13-9.68,19.56-1.26,2.66-2.74,9-6.58,8.94-3,0-2.7-3.35-4.69-4.49-2.53-1.43-5.4,1.3-7.47,2.43A10.87,10.87,0,0,1,418,528.65c-5.62-5.6-9.41,2-14.23,3.63-4.57,1.6-12.67-5.92-16.52-8,1.48-2.5,2.81-5.54,5.33-7.18s5.35-1.32,8-2.24M350.9,565.93c.67-3.22,2.56-5.12,3.76-8,1.39,3.55-1.87,5.64-3.76,8m97,19.76c-.33,10.85-1.21,21.67-1.53,32.51-.15,5-1,9.78-1.62,14.72-.5,4.19-.25,8.29-2.88,11.87-4.15,5.63-12.22,7.25-18.48,9.33-4.6,1.54-9.25,2.93-13.8,4.63-4.08,1.53-7.38,3.85-11.27,5.67-3.47,1.63-7.23,2.6-10.69,4.33s-6.41,4-10.08,5.58c-4.41,1.92-8,5.32-11.95,8-3.44,2.38-7.09,4.22-10.05,7.21-2.78,2.81-6.3,4-9.45,6.53-3.33,2.64-6.82,4.35-10.5,6.42-7.54,4.23-17.71,11.47-26.78,7.35,2.59-3.31,7.9-6.49,8.31-11.06.52-5.95-4.66-3.76-7.65-1.86-4.55,2.88-7.06,6.35-10.51,10.18-4.05,4.49-9.15,1.47-14.09.21,3.38-3,6.73-6.12,10.11-9.17,2.84-2.57,7.2-5.35,8.94-8.91,1.24-2.54,1.18-6-1.81-7.35-3.35-1.48-7.14,1.63-9.62,3.49-6.58,4.92-10.92,11.17-15.24,18-2.3,3.65-3.36,3.37-7.58,2.64-4.49-.77-9-1.59-13.49-2.14,6-6.14,12.68-12.8,17.41-20,1.53-2.33,3.53-8.47-1.14-9-1.92-.23-5.75,3.7-7.24,4.76-6.48,4.64-12.71,10.48-17,17.25-1.42,2.23-1.86,4.71-4.61,4.9-3.59.24-10.26-3.19-13.73-4.24,6.62-8.35,13.2-16.76,20.93-24.12,7.11-6.76,14.2-11.67,22.51-16.86A264.51,264.51,0,0,0,298.74,638c7.82-6.29,16-12.22,23.21-19.24a252.81,252.81,0,0,0,37.83-47.21,125.61,125.61,0,0,0,6.85-12.33c1.89-4,2.77-8.76,5.33-12.38.89-1.26,2.13-2.19,2.92-3.49s.5-2.72,1.63-3.81c2.63-2.52,7.41-1,9.86.76,3.95,2.84,7.14,6.29,11.47,8.67a56.89,56.89,0,0,0,13.91,5.3c11.29,2.75,22.48,5,34,6.67-1.18,4.39,1.73,5.08,2.69,9,1.17,4.79-.33,10.81-.48,15.69M339.25,512.51c-2.56-3.8-4.84-7.78-7.36-11.6-1.53-2.33-3.43-4.84-2.12-7.69,2.2-4.81,10-5.66,14.21-3.57,9.6,4.77.68,18.39-4.73,22.86m-25.41-87c-.88-7.43,2-12.7,8.68-16.6,4.8-2.78,8.65,1,8,6.08-1,7.72-9.24,16.3-15.53,20.32-.41-3.26-.76-6.53-1.15-9.8m-1-21.26c2-1.58,7.29.43,9.59.57l-9.48,8.28c-.21-1.89-1.94-7.4-.11-8.85m10.66-71.78c16-2.08-2.42,15.08-7.05,17.77.75-3.65,2.61-17.19,7.05-17.77m42.58-30.05c-2.15,8.8-18.85,18.4-19,4-.07-5.37,2.95-4.94,7.35-5.45,2.51-.3,12.89-3.56,11.67,1.46m-57.67,13.63C306.52,321,305,326,303.18,331a16.08,16.08,0,0,1-3.29,5.4c-1.27,1.45-2.78,1.81-2.73,4.1a10.83,10.83,0,0,0,4.12-2.17c-.31,4.52-1.91,9.4-2.69,13.91a139.63,139.63,0,0,0-2,16.31c-.63,11.93-.63,23.82-.37,35.76.13,6.08.2,12.17.52,18.25.17,3,.35,6.05.73,9.06.15,1.21,1,3.79.48,4.93-2.13,4.46-11.59-7.79-15.7-6,.59-3.39-.78-2.65-3-4.32-1.11-.81-1.82-2.19-3-2.91a7.3,7.3,0,0,0-1.15-1c-.48-.65-1-.58-1.51.21-4.63-2.77-5.82-8.67-8.31-12.63-1.27-2-2.51-2.36-2.73-5.18-.19-2.46.18-5,.08-7.43a36.65,36.65,0,0,0-1.05-8.55c-.91-3.13-2.16-2.88-4.59-4.55a2.49,2.49,0,0,0,1.48-1.64c-.77.13-3.13,1.1-3.71.4-1.16-1.35,1.56-1.53,2.28-2.08-3.05-1.35-2.4-2.46-1.3-4.94.32-.7.61-1.75.88-2.34.58-1.29.91-.48,1.1-2.08s-1.18-4.54-1.58-6.17a16.7,16.7,0,0,1-.43-7.95c.48-2.31,1.8-4.4,1.89-6.78,0-.66-1-.88-1-1.53,0-.94.86-1.35,1.09-2.22.58-2.22.32-4.57,1.32-6.69a38.36,38.36,0,0,1,4-6c.89-1.14,3.07-2.44,3.31-3.95.15-1-1.41-.89-1.34-1.64.1-1,1-1.36,1.19-2.12.65-2.08.81-4.09,2.49-5.68,2.11-2,3-1.17,3.12-4.49,0-1.62-1.25-1.87-.56-3.74.38-1,1.49-1.61,2.2-2.33a29.59,29.59,0,0,0,5-6.65c1.33-2.33,3.45-3.68,4.81-5.69,1.78-2.62-.88-3.92,2.73-4.65-.52-1.63-1.06-2.94.29-4.32.85-.87,3-.34,3.75-1.34.86-1.15-.41-3.88.89-4.63,1.06-.61,2.64,1.26,4.3.34,1.26-.71,3.17-4.61,2.76-6.05,3.27,1.84,2.46.58,4-1.78.35-.53,1.42-.65,1.72-1.18.6-1.07.47-2.16,1.34-3,1.45-1.44,3.82-1.07,5.42-2.1,1.31-.85,1.25-1.77,2.3-2.58s2.37-.82,3.25-1.53c1.71-1.39,1.73-2.87,3.87-4.07a46.1,46.1,0,0,0,7.09-4.51c1.5-1.23,2.93-3.41,4.69-4.22,2.44-1.12,4.33-1.2,6.71-2.8,1.72-1.16,3.35-3.06,5-4,1.27-.73,2.17-.57,3.77-1,2.9-.82,3.6-3.54,6-4.65,1.62-.76,4-.07,5.75-.47,5.53-1.24,11-3.92,16.55-5.4,6.78-1.81,13.6-3.4,20.43-5-6.27,8.51-14.27,16.18-22.37,22.93-2.66,2.22-17.24,12.33-9.39,16.65,3.16,1.73,10-3.87,12.56-5.23A172.93,172.93,0,0,1,392.49,256c8.69-3.6,20-10,29.65-9.5-5.87,7.21-13.21,13-19.93,19.37-6.17,5.85-15.48,11.34-12.57,20.92-8.67-2.21-16.47-4.82-25.48-4.24-4.05.26-8.09-.23-12.11.34-4.37.62-8.49,2.08-12.69,3.37-3.33,1-7,1.09-10.06,2.78a40.85,40.85,0,0,0-4.64,3c-1.77,1.35-2.17,2.24-3.56,4-5,6.35-9.76,12.31-12.71,20.05M281.26,436.29l-.83-3.35c2.76,1.7,2.76,1.7.83,3.35m-20.87-35a2,2,0,0,1-2.18.22c-.52-.51.84-2.47,1.06-2.89.54.41,1.78,1.77,1.12,2.67m-5.91-12.74c.37-1.34.73-2.69,1.1-4,.45,1.25,2.47,2.62,2.52,3.81,0,.78-3.22.39-3.62.22m1.17,1.84c3.17,2.09,3.5,4.55,3.6,8.15-3.79-1.26-3.25-4.93-3.6-8.15m55.1-142.06c-.32.87-1.68,3.56-2.67,1.68-.32-.61,2-1.43,2.67-1.68m-.91-2.94c.78-.7,2.36.17,3.25-.4.62-.4.41-.8.7-1,.06-.05.91-1.76,1.25-2.14.61-.69,1.94-1.11,2.69-1.73,2.07-1.72,3.24-4,4.55-6.28,1.56-2.74,2.05-3.06,4.56-4.32a15.73,15.73,0,0,0,4.49-3.4c1.62-1.7,1.5-2.91,2.84-4.77.65-.91,1.6-1,2.37-1.76.92-.89,1.39-2.12,2.24-3,.37-.39,1.54-.39,1.77-.72s.5-2.09.77-2.4c.51.69,1,1.38,1.52,2.06,2-3.52,3.46-6.43,6.81-8.77,3.52-2.46,6.55-6.06,10.19-8.26.81-.5,2.48-.71,3.1-1.44,1.06-1.23.14-2.33.91-3.38s2.57-.23,3.68-.74c1.4-.65,1.8-2.54,3.61-2.33-5.94,7-5.87,18-6.19,26.77-.13,3.79,2.25,5.7-1.27,8.48-3,2.36-7.22,1.66-10.76,3.21-4.44,2-9.2,3-13.74,4.7s-8.46,4.84-13,6.88c-4,1.8-6.7,4.36-10.34,6.58-1.36.82-3.45,2-5.07,1-1-.62-2.27-1.64-1-2.83m67.17-59c.26-1,5.34-3.63,6.59-4.48,1.87-1.29,4.65-4.44,6.74-3.19.73-2.9,3.55-6.13,6.05-6.75a34.84,34.84,0,0,0,10.26-5.13c.8-.61,1.06-1.5,2-2.07,1.63-1,3.25-.45,4.82-1.8.24-.2,2.42-3.79,2.5-3.76.12.39.22.78.31,1.17a15.38,15.38,0,0,0,4.15-2.81c.23-.27-1.28-1-.81-1.48s1.89.07,2.48-.54c-1.83,9.13-.46,20.87,8.79,25.5-11,1.19-21.76-2.12-32.9-.09a57.78,57.78,0,0,0-15.61,5c-3,1.51-6.78,6.89-9.74,4.28,1.18-1.57,3-2.54,4.37-3.87m53.42-26.25a15.48,15.48,0,0,1,16.65-5.22c7.36,2.11,4.25,7.25,3.14,13-2.12-3.11-6.73-6.2-10.64-6.29-5.56-.13-3.46,4.49-.12,6.15,3,1.51,8.23,1.93,10.4,4.67s1.31,7,1.65,10.17l-4.93-.73c1.38-7.34-4.69-7.7-10.35-9.76s-10.49-6.22-5.8-12m18.44-18.07v6.81L442,145l6.87-2.9m18.4,54.42a225,225,0,0,1,22.58,7.12c2.67,1,5.59,1.41,8.21,2.58s2.86,1,2,3.18c-2.48,6.12-8.35,5.06-13.5,4.12-8.06-1.46-16-3.49-23.92-5.4-7.78-1.87-15.72-3.09-23.38-5.43a233.84,233.84,0,0,0-23.62-6.25c-2.36-.46-21-2.18-20.89-4.13,11.76-1.53,23.87,0,35.68.14,12.28.16,25,.84,36.87,4.07m-10.38-23.65c.15-4.2.21-8.42.73-12.6,3.5,4.32,6.65,5.61,11.06,1.57,4.23-3.88,5.17-5.9,10.52-2.26,4.64,3.16,9,3,14,.25,3-1.68,7.84-8.58,11-7.16,1.5.68,2.61,3.41,4.13,4.41a22.82,22.82,0,0,0,7.06,2.61c5.25,1.15,8.38-2.22,11.68-5.84,4.78-5.23,4.64-2.19,9.07,1.44,4.94,4.05,9.07,2.07,13.55-1.38,2.73,8,3.75,16.71,4.52,25.08.26,2.83,1.23,6.85-1.31,8.85-1.79,1.41-5.59,1.46-7.75,2.24a77.85,77.85,0,0,0-21.55,11.8c-2.51,2-4.7,4.38-8.13,3.94-3.27-.43-6.45-3.17-9.08-5-2.85-2-5.74-4.18-9.08-5.28-1.95-.64-5.08-.4-6.79-1.58-3.18-2.18.56-7.9-.23-11.74-.6-2.92-2.28-9-6.29-7.29-6,2.54-2.5,12.47.79,15.57a144.43,144.43,0,0,1-20.66-5.15c-5-1.71-7.38-7.37-7.2-12.5m112.77,20.48c13.8-3.88,26.72-6.49,41.08-7.2,6.36-.31,12.51-.11,18.8-.06,3.62,0,6.38-2.88,3.49-6.24-4-4.65-16.21-2.88-21.62-3.09a109.65,109.65,0,0,0-41.52,5.87c1.45-2.67,4.94-3,7.33-4.41a15,15,0,0,0,6.18-7.59c3.26-8.08,0-15.68-3.44-23.06,6.7,1.8,13.63,5.75,20.37,6.75a13.53,13.53,0,0,1,3.56.59c.77.32,1,1.41,2,1.64.46.12,1.56-.92,2.08-.77,2.05.58.43.73,1.73,1.57,1,.67.94,1.53,2.83,1.21.84-.14,1.75-1.43,2.19-1.47s.43-.73,1.29-.53c1.56.37,1.43,2.38,1.95,3.37s-.24,2.46,1.45,3c1.26.43,1.58-.9,2.65-.8a6.37,6.37,0,0,1,2.58,1.56,27.16,27.16,0,0,0,6.88,5.08c-.24-.25,1.18-.84.84-1s1.26.27,1.24.26c1.44.33,2.2,2.54,2.92,3.34a14.28,14.28,0,0,0,5.29,3.69c3.24,1.13,3.15-.22,4.33,3.63,2.3-3.62,3.19,2.45,6,3.11,1.48.35,1.31-.28,2.66.49.92.53,1.54,2.16,2.23,2.94l.9-3.39c2.05,3.9,6.5,10.08,11.37,9,0,1.06-.44,2.34.38,3.25.58.63,1.51-.09,2,.28s1.33,1.6,1.63,1.81c.6.42,1.67.72,2.19,1.14s.68,2.1,1.18,2.73c1,1.19,2.58,1.42,3.36,2.84.17-1.4.35-2.8.52-4.2,1.54,1.19,1.67,2.11,2.05,3.84.54,2.47-.18,1.89,1.53,2.94s2.54.91,4.08,2.69,1.52,2.81,3.69,1c.4,1.34.53,3.08,1.61,4.11.81.78,4.19.81,4.51,2.65-6.34-5.34-2.17,2.77,0,0,.46,3,2.62,3.91,5.09,6,2.3,2,2.68,1.82,3.46,5.12a5.22,5.22,0,0,1,1.25.8c-2.25.32,1.23,2.82,1.82,3.28.43.34,1-.46,1.7.08a16.7,16.7,0,0,1,2.14,2.88,62.67,62.67,0,0,0,5,6.15c2,2,3,4.57,5,6.93,2.18,2.62,3.36,5.64,5.17,8.48s4,4.88,6,7.36c3.19,3.95,4.28,12.64,10.23,12.86-.35.36.13,3.06.19,3.55.28,2.45.09,4.8,1.54,7,.33-2.53,1.65-1.56,2.8-.23,1.91,2.21.23,1.65.33,3.89.13,2.71.44.62,1.47,3a23.48,23.48,0,0,1,1.69,5.12c-3.37.27-4.9-2.48-6.15-5.14-.52-1.11-.69-2.94-1.61-3.81s-2.33-1-3.33-2c-1.93-2-2.77-5.08-5-7-2.57-2.19-3.14-3.22-5.26-5.83-2.35-2.88-5.59-4.91-8.06-7.7s-2.27-1.27-5.37-2.28c-3.29-1.08-8.63-11.45-12.78-7.45.17-2.62-3.75-5.07-5.72-6-.86-.41-1.85,0-2.71-.65s-1-2-1.93-2.75a5.7,5.7,0,0,1-1.72.21c-.6-.31-.6-1.37-1.12-1.72-1.45-1-3.18-2-4.71-2.8-3.74-2-7-4.47-10.64-6.88-3.09-2.07-6.82-5.8-10.39-6.89-3.12-.95-5.08-.46-7.63-2.37-1.39-1-1-1.38-3.21-2s-3.32-.3-4.45-2.55c-2-4-.73-11.65-1.11-16.08a80.61,80.61,0,0,0-2.11-14.07c-1.45-5.4-3.36-8.22-9.15-7-11.47,2.52-22.8,4.92-34.32,7.14-23,4.41-45.53,11.6-68,18-1.71.49-11.25,2.68-9.3-2.26.89-2.27,6.93-3.12,9-3.84,11.09-3.93,22.24-7.93,33.59-11.11m-3.86-10.05-5,1.92v-4.66l5,2.74m-7-24.65c1.46,1.19,4.42-1.68,5.66-2.26a15.09,15.09,0,0,1,7.17-1.64,7.74,7.74,0,0,1,6.76,9c-1.36,7.36-11.85,10.84-17.63,13.72-.19-2.61-1-5.75.8-8,1.58-2,4.67-1.82,6.13-3.9,3.69-5.24-6.31-5.72-8.54-1.55l-2.65-8c2.13-.35,1.2,1.69,2.3,2.59m10.32-14.41-6.24,4c-1-4.66,2.48-5.27,6.24-4M758.84,306.35c-2.73,1.3-3.41-1.81-5.37-1.94,2.32-1.43,2.32-1.43,5.37,1.94m11.09,67.84c.34,4.47.07,9,.67,13.43.45,3.38,1.82,6.53,2,10a28.68,28.68,0,0,1-7.32,20.62A46.49,46.49,0,0,1,747,430.05c-2.94,1-6,3.17-8.86,4-3.16.9-6.16-1-8.77,2.44-1.74-14.94-.47-30.56-.61-45.59s0-30.15-2.52-45.05c-2.27-13.28-6.75-28.21-15-39.07a63.3,63.3,0,0,0-11.83-11.41,55.73,55.73,0,0,0-7-5c-3.87-2.13-7.17-1.84-11.38-2.45-6-.87-11.62-1.6-17.66.09-5.63,1.58-11.83,3.38-16.87,6.13s-10.86,3.86-16.07,6.31c-3.54,1.66-10.91,7.23-14.85,6.22s-9.44-7.43-11.87-10.33c-3.11-3.7-5.68-8-8.44-12-1-1.39-2.94-3.55-3.19-5.35-.44-3.11.81-2.1,3.78-1.75A111.46,111.46,0,0,1,618,282c3.65,1.2,10.79,6.05,14.44,3.14,5.57-4.44-2.9-12.06-6-14.62-5.29-4.37-11.43-7.61-17.06-11.49-6-4.12-13.9-8.51-17.75-14.85,11.24,3.32,22.48,7.12,33.4,11.4a121.67,121.67,0,0,1,14.62,6.63c2.64,1.46,8,5.42,11.14,3.52,6.9-4.11-8.95-16.07-11.24-18.52-3.55-3.8-7-7.56-10.93-11-2.64-2.32-6.78-3.95-8-7.38,4.37,1.58,7.91,4.68,12,6.79a19.52,19.52,0,0,0,6.47,2.07c2.52.36,2.82.77,4.81,1.77a31.88,31.88,0,0,0,4.88,2.36c1.24.38,3.4.44,4.48,1.15.56.79,1.13,1.56,1.72,2.32.66.2,1.31.42,1.95.68,1,.85,1.53,2,2.46,2.92,6.78,6.41,15.85,11,23.46,16.37,7.19,5.08,14.82,9.68,21.73,15.23,7.95,6.38,16.2,13.24,23,20.9a130.93,130.93,0,0,1,10.17,14c2.32,3.46,5.7,6.34,7.71,9.91,4.38,7.79,8,16.2,12.73,23.86s11.06,15.57,11.79,25.07m-64.62,45.18c1.31-5.4,8.7-11.71,13.42-14.1-2.38,5.89-8.72,9.91-13.42,14.1m12.19,18.85c-4,8.36-21.74,9.32-19.34-3.05,1.18-6.06,6.18-9.78,10.46-13.75,2-1.83,6.84-8.38,9.92-7.33-.15,4.72-.43,9.45-.42,14.16,0,3.15.8,7-.62,10m-5.12-96.32c1.63,3.67,3.26,6.72.23,10-1.37,1.48-5.83,4.72-7.84,4-6.48-2.31,5.86-12.36,7.61-14m-39.16-32.66c1.56-.09,3.07.15,4.61.05s1.7-.37,3.12-.17l.45.65q.3,2.21,2.31.48a15.31,15.31,0,0,1,4.87,1.7c-4.82,3.48-10.69,7.52-16.6,8.69-9.34,1.84-6.76-11,1.24-11.4M530,387.41c-1,1.95-3.76-2.92-4.45-3.83,1.29,0,5.43,1.87,4.45,3.83m75.06-51.29A188.28,188.28,0,0,1,628.74,325c1.37,6.6-5.31,15.13-9.43,19.65-3.33,3.65-7.34,7.44-11.86,9.55-4.88,2.27-10.21,1.27-10-5.11a26.56,26.56,0,0,1,1.57-8.21c1.23-2.75,3.54-3.32,6-4.77M507,216c1.08-.07,12.81-1.58,12.75-.12-.19,4.39-11.58.94-12.75.12m-83,84.74c6.2-7.65,16.21-15.91,16.36-26.6.21-15.72-17.24-7.88-26-7.22,4.64-4.56,28-23.69,14.17-30.48-4-2-9.6-.05-13.58,1-7.06,1.81-13.62,5-20.55,7.14,4.95-5.27,13.51-11.26,13.23-19.25-.34-9.73-8.32-7.37-15.22-6-2.66.55-14.5,5.26-16.73,2.06-.81-1.17.51-2.66.78-3.7a13.46,13.46,0,0,0,.36-4.38c0-3.8,2.56-8.69.5-12.23a18.11,18.11,0,0,0-1.21,2.51c-.68-2.06-.22-4.24-.9-6.3,17.23,4.4,34.75,6.82,52.09,10.58,8.78,1.9,17,5.18,25.93,6.66S471,218.31,480,219.73c8.21,1.29,16.06,3.45,24.19,5.1,7.91,1.61,16-1.92,23.76-3.71,17.31-4,34.61-8.1,52-12,20-4.48,40.8-8.32,59.95-15.79q.56,14.94,2.38,29.81c-8.45-4-21-9.21-29.55-2.06a11.29,11.29,0,0,0-3.12,12c1.47,4.57,6,6.69,9,10.14-9.05-2.32-32.4-18.68-36.56-2.15-2.93,11.68,11.39,19.23,18.39,25.8-6.95-1.36-16.26-6.92-20.35,2-3.53,7.72.72,16.12,5.08,22.49,2.36,3.46,5,6.7,7.52,10.05,1.32,1.77,2.62,3.56,4,5.28s4,3.52,5,5.38c2,3.73-2,4-5.11,5.31-3.86,1.69-7.18,4.52-10.71,6.77-8.09,5.17-15.16,10-24.73,11.62-9.84,1.7-19.32,3.47-29,5.84s-17.59,4.64-27.49,1.58c-4.51-1.39-8.19-2.63-13-2.37-5,.28-8,0-12.1-3.1-17.79-13.39-37.1-24.39-55.46-37m-32.06-13.46c6.87-3.44,13.79-6.91,20.89-9.88,5.88-2.45,14.81-5.31,21.24-4.23-1.81,4.66-5.12,8.48-8.67,11.91-3.14,3-7.07,7.62-10.87,9.73-3.45,1.93-7.46-1.12-10.86-2.39-3.74-1.41-8.89-2.06-11.73-5.14m1.72,17.41c3.43-1.43,10.79,3.35,13.91,4.59,6.12,2.44,12.28,5,17.68,8.85-6.59,7.61-14.06,14.58-22.92,19.47-5.84,3.22-15.67,6.91-21.18,1.06-6.91-7.34,1.4-22.3,6.3-28.59l.48,3.22c1.57-2.5,2.76-7.37,5.73-8.6m125.78,65.18c-4.28.9-5.73.08-8.55-3.19a77.85,77.85,0,0,0-5.93-6.51c-2.2-2-7.62-6.94-.71-4.11,6.29,2.57,11.69,3.85,18.61,2.85,7.92-1.16,15.3-4.5,23.11-6.2-4.28,3.75-8.53,7.53-12.82,11.26-4.53,4-8,4.68-13.71,5.9m1,30.12c-9.37,7-28.23,6.29-21.88-9.22a27.89,27.89,0,0,1,3.87-6.58,12,12,0,0,1,2.19-2.51c2.07-1.26,1.5-1.41,3.49.69,1.72,1.8,15.15,16.57,12.33,17.62m-2.78-27c.86-.28,4.47-2.37,5.3-1.21s-6.26,5.23-5.3,1.21m68.19,107.5c-2.11,5-19,12.34-15.82,2.18,1.39-4.5,2.7-7.91,7.95-8.25,3-.19,9.72,1.64,7.87,6.07M616,412.24c2.78-4,11.94-9.5,15.85-3.47,1.89,2.9-2.69,4.39-5.45,3.64-1.49-.4-2.7-1.29-4.32-1.36C620,411,618,412.6,616,412.24m7.36,4c-1.89,1.91-13.27,11.49-15.11,10,3.72-5.31,8-11.24,15.11-10m-18.59,96.9c-3.95.23-2-5.73-1.59-8.11.95,1.66,6,7.86,1.59,8.11m10-10.67c-1.27-2.28-4.72-5.66-3.94-8.59.6-2.23,6-5.24,8.22-4,3,1.71-1.34,12.93-4.28,12.55m93.77-23.85c-1.69,5.82-3.45,4.32-8.75,5.45s-9,5.64-13.67,8.07c1.63-3.44,2.63-7.63,5.36-10.42.63-.64,4.48-1.92,2.29-3.41-1.93-1.3-4.69,2.93-5.51,4.08-4.06,5.68-6.89,12.61-9.24,19.15a54.68,54.68,0,0,0-2.61,9.84c-.49,3,0,6.14-.46,9.07-.8,4.71-7.2,4.73-11,5.95a76.12,76.12,0,0,1-10.57,2.88c-3.13.51-6.38-.42-9.42.2-3.29.66-4.77,2.62-8.51,2.17-3-.35-5.89-1.76-9-1.9-2.89-.13-5.78.87-8.65.06s-2.76-1.14-2.1-4c.41.77.82,1.54,1.24,2.31,1.15-.91,2-3.67,2.66-5,1.1-2,2-2.71,1.59-5.21-.6-3.7-3.94-6.33-4.69-9.84-.79-3.67,1.92-6.67,3.52-9.74,2.2-4.19,2.17-7.3.33-11.64l4.16,1.1c-1.9-4.12-8.34-2.45-11.57-1.23-1.62.61-4.2,3-5.94,3-2.4-.08-3.65-3.23-4.69-5a159,159,0,0,0-9.92-14.66c-1-1.28-2.24-2.11-1.9-3.57.28-1.24,3.06-3,4-3.77,3.38-2.86,7.69-4.45,10.87-7.46,4.81-4.56,10.35-7.82,15.27-12.28,5.12-4.65,10.39-8.93,15.73-13.32s10.08-9.7,15.45-14.19c1.39,2.52,4.08,11.54,7.16,12.23,3.59.82,3.48-3.43,3.3-6-.25-3.64-2.27-7.18-2.5-10.66-.24-3.72,3.34-5.38,6-7.53,4.17-3.32,13.4-10.89,8.44-17.12-4.27-5.37-18.18,4.92-22,8-3.25,2.63-5.77,5-9.44,7.08-2.58,1.46-6.9,7.07-10,6.55-3.63-.62-5.05-4.59-9.5-4.46s-8,3.26-10.73,6.4c-6.09,7.11-8.19,16.61-13.74,24-2.73,3.65-6.29,6.66-9.25,10.11-3.26,3.8-4,8.16-7.17,11.87-9.2-12.25-19.23-23.86-28.93-35.71-4.84-5.92-9.59-11.91-14.33-17.91-1.77-2.25-3.78-4.36-5.41-6.73-2.22-3.23-1.82-5.83-2.7-9.44-.39-1.6-2.2-3.52-1.72-5.05.66-2,5.25-3.66,6.91-4.5,6.76-3.44,12.89-7.73,19.2-11.92,11.68-7.77,23.49-15.05,35.91-21.68-.21,2.85-2.07,5.81-.82,8.68.58-1.65,1.5-9,3.7-9.31-.42.06-.07,9.42.27,10.76,1,4,4,6.72,8.19,6.69,8-.05,15.23-8.79,19.7-14.59,3-3.92,5.92-8.48,7-13.38,1-4.41-.1-7.48,4.48-9.71a142.12,142.12,0,0,1,28.93-10.77c-.45,4.33-1.71,9.67,2.23,12.78,4.34,3.44,10,.38,14.12-1.9s10.3-8.44,15.06-6.64,7.94,7.64,10.57,11.54c2.3,3.43,4.82,5.91,2.14,9.74-3,4.29-5,8.48-7.35,13.15-.92,1.79-1.8,3-1.15,4.8a26.6,26.6,0,0,0,3.27,4.65c4.17,3.25,9.8-2.93,12.78-5.27,1,10.09,1.29,20.14,1.71,30.26.31,7.41,3.18,14.71-2.9,20.13s-11.16,11-14.87,18.31c-2,3.92-3.75,8-5.9,11.78-1.43,2.57-4.45,6.33-2.6,9.34,1.95-1.85,2.53-4.66,4.15-6.74,1,4.33,2,9.13,6.53,11,5.27,2.11,10.51-1.54,15.17-3.57-1.67,11.57-4.93,22.81-8.18,34m-5.39,13.3c-3.61,7.72-6.88,17-13.56,22.73-1.46,1.25-7.69,6.13-10.06,5.31-2-.69-.9-4.76-.55-6.5,1.77-8.84,4.85-14.41,12-20.05,3-2.33,6.78-5.32,10.61-5.89,4.12-.62,2.93,1.43,1.54,4.4m102,183.4c-9.38-12.74-22.63-22.65-35.15-32.22-5.67-4.34-11.92-7.59-17.65-11.93a136.47,136.47,0,0,0-20.31-13.34c-13.75-7-28.76-11.89-41.74-20.18-6.33-4-13.26-7.95-19.21-12.49a85.38,85.38,0,0,1-7.29-6.82c-2.19-2.13-6.91-5.21-7.78-8.31,3.65-.6,5.73-4.14,9-4.51,1.07-.11,7.8,1.67,6.88-1.6a15,15,0,0,0,4.78-.63c.84-.22,1.85.12,2.7-.18,1.31-.46,2.21-1.8,3.53-2.31.94-.36,4.44,0,5-.41,1.44-1.24-.1-1.13-1-2.67,2.81-.07,4.74,1.35,7.56-.16.86-.46,1.58-1.52,2.42-2.07,1.47-1,2,.54,3-1.49.95,2.79.92,2,3.2,1.2a22.15,22.15,0,0,1,6.49-1.61c6.18-.49,12.37.26,18.52-.18,2.25-.16,4.17-.67,6.4-.38,2,.26,1.37,1.63,3-.21.38-.43-.85-1.6-.26-2.22.26-.27,1.11-.08,1.43-.22,2.87-1.25,2.88.5,3.39,2.78a14,14,0,0,0,4.87-1.74c-.74-.66-2-1.39-1.26-2.59,2.43.92,4,.49,2.8,3.16,2.45.81,2.9-.25,5.1-.48,1.3-.13,3.11.67,4.19-.36s-.68-2.37,1.49-3.34a2.11,2.11,0,0,1,1,1c1.18.35,1,.81-.63,1.38,4.27,2.21,3.27-.26,5.06-2.88.41-.6,2.27-2.47,3.11-1.57,1.28,1.37-1.33,1.81-.77,3.17,1,2.37,4.36-.66,5.4-1.86.79-.91,1.11-2.64,2-3.32,1.18-.94,2.88.51,4.35.25,6.75-1.18,13.12-10.25,8-16.32-1.37-1.63-2.53-1.3-4.15-2.33s-2.51-2.78-3.8-4.24a27.42,27.42,0,0,0-10.68-7.39,180.39,180.39,0,0,0-29.89-8.35c-4.65-.92-9.6-2.32-14.36-2.31-2.8,0-7,2.18-9.64,1.14-5.1-2,2.38-12.43,3.62-15.78a178.31,178.31,0,0,0,8.15-30.74c.35-2,.22-4.65.95-6.58.84-2.22,1-1.91,2.81-2.09,3.24-.32,6.78,1.37,10.16.79,3.74-.65,7.78-.35,11.55-1.51a8.28,8.28,0,0,0,4.49-2.57c.36-.46,0-.86.18-1.18.08-.1,1.37-1.49,1.41-1.57a10.36,10.36,0,0,1,.19-2.15c1.3,1.09.66,3.37,2.86,3.42.4-2.43.4-2.92,2-4.29-.13.11,1.2-1,1-.89a3.43,3.43,0,0,1,.47-1.21,5.7,5.7,0,0,1,2.36-.58c1.73-1.77,1-2.71,1-5.1l4.17,2.17c.34-7.07,4.64-10.94,7.5-16.66,1.22-2.44,2.46-4.35,2.75-7.29.17-1.7-.27-3.2.43-4.8s2.07-2.23,2.66-3.81c1.18-3.12.3-7.09.36-10.32.09-4.48.54-9,.69-13.43a146.51,146.51,0,0,0-1.92-26.53c-.62-4.16-1.68-8.19-2.5-12.3-.68-3.39-2.31-6.56-2.89-9.7-.24-1.31.13-2.48-.27-3.93-.51-1.9-1.38-3.77-2-5.64-1.51-4.35-3-8.71-4.69-13-3.29-8.32-7.14-16.39-10.79-24.54-3.52-7.85-6.43-15.94-11-23.26s-9.32-14.31-14.26-21.22c-5.15-7.19-11.66-13.37-16.66-20.63-9.37-13.63-22.45-24.86-36.14-34.13-28.23-19.14-58.74-38.25-92.6-44.81a92.49,92.49,0,0,0-15.47-1.8c-3.23-.08-8.57,1.48-11.63.38-3.42-1.22-3.11-5.06-4-8.08-1.1-3.87-3.59-6.41-6.41-9.15s-5.67-6.25-9.37-8.21-8.18-2.73-12.34-3.33c-3.71-.54-9.26,0-12.65-1.66-3.09-1.47-1.57-3,1.32-1.74a5.65,5.65,0,0,1,1.21-3.09c.41-.5,2.35-1.19,2.39-1.65s-1.57-2.09-1.8-2.79a7.77,7.77,0,0,1,.38-5c2.91,2.59,3.76,3.74,7,1.26a9.52,9.52,0,0,1,3.39-2c.44-.14,1.41.3,1.78,0,1.44-.94.12-.72.8-1.84-.17.28,1-2.69,1-2.07.15-1.59.62-1.1-.34-3-1.88-3.81-6.65-4-4.22-8.32,1-1.71,1.8-1.54,2.07-4a37.2,37.2,0,0,0,0-4.22c0-2.78.51-4.72-2.09-6.13s-4.8.13-5.82-3.24c-1.06-3.54,0-8.08-3.82-10.5-2.8-1.77-6.85-.25-9.94-1.12s-5.95-4-9.1-1.6c-2.24,1.73-3.42,6-7.64,3.68-1.9-1-2.94-4.52-4.14-6.48-1.91-3.11-3.45-4.24-6.39-1.2-1.81,1.87-5.63,6.43-5.86,9-.26,2.86,2.24,4-.9,5.74s-4.86.45-7.39,3.87-.57,5.26-3.47,8.5c-3.64,4.06-5.57,5.81-5.52,11.27,0,3.75-3.28,7-1.34,10.54,2.16,4,8.48,5.64,12.31,7.26-1.28,2.36-3,3.87-1.54,6.31,1.35,2.2,5.17,2.66,7.54,2.26,1.59-.27,1.65,0,2.9-1.15.82-.74-.3-1.65,1.39-2.06s4.67,3.1,5.84,4c-2.61,3.39-9.79,4-13.58,5.74-2.32,1-4.44,2.6-6.8,3.54-2.14.85-4.74.65-6.67,2-3.35,2.27-4.74,7.9-6.79,11.21-2.33,3.74-4.58,5.48-9,6.26-5.56,1-10,1.36-15.22,3.78-6.33,3-12.57,6.08-18.78,9.26A284.5,284.5,0,0,0,383,165.34c-9.74,6.5-19.22,13.29-28.61,20.09s-17.1,15-25.18,23.11c-6.53,6.57-12.25,13.67-18.76,20.23-7.67,7.76-13.32,17.55-20.43,25.78-3.9,4.5-7.62,8.92-10.07,14.22-2,4.3-5.42,8.52-7.72,13-2.94,5.76-5.72,11.44-9,17-1.35,2.29-3,4.25-4.39,6.44-1.82,2.79-1.72,5.49-2.21,8.72l-1.54-2.36c-.93,2-2.06,4-2.86,6.12-.52,1.33-.44,3.21-1,4.38-.65,1.46-1.44,1.26-2.24,2.48s-1.15,3.05-2.06,4.44c-3.94,6-5.46,13.68-7.48,20.55-2.72,9.23-2.29,19.84-2.14,29.35a223.55,223.55,0,0,0,2.22,30,72.18,72.18,0,0,0,8.87,25.54c4,6.88,9.5,10.89,16.55,14.41,3.24,1.62,6.24,1.12,9.64,1.38,3.72.28,6.26,1.29,10.2.4,1.89-.42,2.78-1.8,4.29-2.26.93-.28,1.43.18,2.32.07,1.27-.15,3.93-.78,5.31-.63,4.31.47,3.59,7,4,10.31.65,5.12,1.13,10.29,2,15.38,1.85,10.7,5.84,20.7,8.2,31.22a114.7,114.7,0,0,0-30.57,7.51c-10.28,4.15-20.68,5.56-31.5,7.63-10.12,1.93-19.86,5.54-28,12.07-3.8,3.07-7.75,6.65-5,11.69,1.78,3.23,5,4,7.77,5.92.57-.71-1.06-2.21-1.35-2.63,2.33.48,2.26,1.57,4,2.52,1.49.83,2.71.8,4.34,1.38,4,1.43,5.94,5,9.87,6,1.24.32,2.86,1.07,4.12,1.29,1.52.25,2.66-.41,4.2-.13a8.33,8.33,0,0,0,2.7,1.17c.63-.29,1.26-.6,1.88-.93,2.21.23,3.58,1.62,5.38,2.77.12-1.44-.06-2.94,1.31-3.88.53,1.4-.33,2.29,1.12,3.25,1.85,1.23,4.26-.3,5.91-1.07.47,4.65,11.26,4.38,14.68,4.31,4.73-.09,9.46-2,14.24-.92,2.43.54,5,1.09,7.46,1.79,2.92.83,6.45,1.58,9.33,2.63,1.14.42,2.54,1.76,3.76,1.67,1-.07,1.23-1.5,2.36-1.46s1.7,1.47,2.81,1.9c1.65.64,3.17-.58,4.74,0,.57.22,1.33,1.17,2.05,1.48,1.1.47,3.27.47,4.49.7a38.2,38.2,0,0,0,4.77.21c1.19.09,1.17.89,1.74.94s1.8-2.2,2.68-2.53c1.29-.48,3.62.67,4.93.87a185.76,185.76,0,0,1-33.33,34.19c-13.38,10.73-27.08,21.46-41.43,30.88-13,8.55-25.63,15.94-35.73,28-8.51,10.17-22.07,21.07-20,35.82s18.1,20.74,30.92,23.55c16.14,3.54,32.74,2.12,48.92,4.11,6.89.85,14.56.4,21.5-.33,8.2-.85,15.23-6.2,22.28-10.07,12.69-7,23.53-16.28,36-23.46,15.64-9,31.12-18.51,48.26-24.53,8-2.8,16.19-6,22.63-11.76,1-.86,1.67-2.15,2.75-2.86,1.84-1.2,2.33,0,3.4-.35.82-.28,1.62-1.16,2.33-1.43,1.8-.67,2.6-.39,4.61-.39-1.72-1-3.31-3.57-1.51-5.67,3.07-3.58,3.6,2.15,4.75,3.48,1-1.26.61-2.38.36-3.81l2.48,1.64a10.31,10.31,0,0,1,1.44-7.72c1.35-2.22,1.68-1.91,2.05-5,4.2,3.83,5-5.47,5.4-8.86s0-5.64,2.16-8.52c2.32-3.08,5.85-5,8.8-7.43,4.65-3.79,9.77-8.58,16.21-4.94,5.08,2.87,7.85,9.9,12.61,13.51,2.89,2.2,5.95,2.42,7.79,5.82,1.49,2.74,2,6,3.38,8.85,3.41,6.84,8.31,14.67,13.91,19.92,5.21,4.88,11.9,4.85,18,7.88s12.3,6.25,18.69,8.42c7,2.38,14.5,3.39,21.3,6.26,3.49,1.48,6.61,3.71,10.14,5.12,3.8,1.53,7.81,2.61,11.66,4,15.26,5.54,30.2,12.34,46.23,15.41,7.12,1.36,13.7,5.07,20.86,5.85a57,57,0,0,1,8.59,1.52c4.72,1.21,3.72,1.85,5.46,5.78,2.86,6.48,9.84,2.64,15.22,2.81,8.61.26,17.1-1.14,25.7-1.2,15-.12,29.53-1.81,44.08-6.75s31.24-16.91,19.1-33.42" transform="translate(-215 -39.62)"/><path id="ink-3" data-name="ink" class="cls-3" d="M631.32,169.4c.21.2.69.33,0,0" transform="translate(-215 -39.62)"/><path id="ink-4" data-name="ink" class="cls-2" d="M366.36,445.2c3.27-3.31,17.17-2.65,18.22,3.28,1.17,6.61-11.25,16.59-15.79,19.39-5.85,3.6-13,4.28-12-4.77.79-6.83,4.88-13.19,9.53-17.9m11.48-6.82c.43,1.83-2.7,1.21-3.56.77-.4-.83,3.14-2.61,3.56-.77m-24,12.12c2.77.25,5.95-4.2,8-5.71.93,1.43-5.17,9.28-5.84,11.08-1.68,4.47-2.61,10.13-.32,14.6,6.67,13,23.75-5.59,28-12.1,3-4.55,5.06-10.2.84-14.66-1.5-1.59-4-2-5.38-3.54-1.84-2-.39-4.56-4.09-4.12-2.55.3-5.61,2.6-8.09,3.43a29.88,29.88,0,0,0-8.28,3.9c-.59.42-8.32,6.82-4.9,7.12" transform="translate(-215 -39.62)"/><path id="ink-5" data-name="ink" class="cls-2" d="M549.82,454.88c-1.74,9-10.63,18.17-20,18.53s-12.33-9.4-10.68-17.18c1.4-6.63,7.13-18.15,15.31-16.88,6.43,1,16.84,7.85,15.35,15.53m-5.93-15c-5.9-4.57-14.06-6.69-20.9-3.06-2.25,1.19-11.2,6.43-8.48,10,3.68-2.85,6.85-6.8,11.62-7.75-.8,3.7-5.39,7-7,10.64a29.34,29.34,0,0,0-2.62,13.66c.56,8.23,6.07,14.63,14.61,13.5,7.82-1,14.66-7,18.39-13.77,5-9,2.17-17.17-5.62-23.2" transform="translate(-215 -39.62)"/><path id="ink-6" data-name="ink" class="cls-2" d="M489.06,475.27c-4.2,6.22-10.61,12.08-18,14-9.6,2.49-6.9-5.44-4-11.13,2.54-5,6.89-13.68,13.51-13.64a21,21,0,0,1,8.41,2.31c3.88,2.37,2.35,5.18.14,8.46m-8.95-13.68c1.51-1.68,8.19-8.88,9.08-3.27,1.92-2.22.41-4.07-2.05-4.3-3-.29-6.2,3-8.34,4.65a41.48,41.48,0,0,0-10.7,11.55c-3.22,5.22-11.41,17-4.24,22.17,7.75,5.59,19-4.74,23.9-10.06,3.1-3.41,7.21-8.41,6-13.4-1.45-6.14-8.58-6.78-13.68-7.34" transform="translate(-215 -39.62)"/><path id="ink-7" data-name="ink" class="cls-2" d="M447,361.28c-4.34,5-13.15,12.16-20.41,11.31-6.63-.77-4-8.21-1.7-11.8,3.52-5.41,8.24-10.49,15.06-10.79,2.94-.12,6.75-.06,9,2.17,3.12,3,.31,6.49-2,9.11m-.46-13.76c-5.08-1.75-7.08-2.42-12,.37a33.81,33.81,0,0,0-10.21,9c-4.07,5.39-8.18,17.5,2.28,19,11.48,1.66,38.77-21.89,19.95-28.4" transform="translate(-215 -39.62)"/><path id="ink-8" data-name="ink" class="cls-2" d="M462.2,378.43a23.84,23.84,0,0,1-12.13,7.07c2-4.44,6.44-14.14,11.71-15.5,2.42-.62,5.19.2,5,3-.14,2-3.27,4.14-4.57,5.47m4.25-11.73c-2.73-1.37-1.87-2.31-5.05-1.23a27,27,0,0,0-7.76,4c-1.13.93-4.68,4.2-4.25,5.87.79,3,3.43-1.61,4.13-2.51,1.19,1-4.9,9.69-5.26,11.12-1.35,5.35,2.84,5.91,6.95,4.16,5.54-2.35,22-16.05,11.24-21.41" transform="translate(-215 -39.62)"/><path id="ink-9" data-name="ink" class="cls-2" d="M547.69,510.43c.41-3.54,1-7.29,4.24-9.27,2.93-1.8,6-1.54,6.4,2.14.4,3.41-2.94,9.48-5.65,11.34-3.77,2.59-4.49-.64-5-4.21m4.84,8.06c7.74-4.53,12.61-25.29-1.64-19.47-8.11,3.31-5.13,23.43,1.64,19.47" transform="translate(-215 -39.62)"/><path id="ink-10" data-name="ink" class="cls-2" d="M486.47,432.41c1.22-2.5,2.62-3.33,5.09-4.42-1.65,1.55-3.33,3-5.09,4.42m1.79-6.16c-1.75,1.76-5.77,4.44-5.21,7.46.52,2.75,2.62,2.59,4.53,1.74,4-1.8,6.23-9.68,10.42-10.42-4.64-2.94-5.73-2.81-9.74,1.22" transform="translate(-215 -39.62)"/><path id="ink-11" data-name="ink" class="cls-2" d="M488.87,269.77q.35,12.59.61,25.17c.06,2.95-.64,7.15.24,10,.39,1.24,3.93,6.64,5.18,7,4.39,1.22,2.82-9.78,2.85-12.49.11-9.14,0-18.28-.06-27.42,0-4.71,1.31-44.19-4.8-44-1.06,0-3.65,4.55-4,5.45-1.23,2.85-.77,7.06-.75,10.09.09,8.74.54,17.49.77,26.23" transform="translate(-215 -39.62)"/><path id="ink-12" data-name="ink" class="cls-2" d="M525.87,294.23c.34,2.32.16,6.19,2.77,7.39,2.27,1.05,3.14-.2,4-2.14,2-4.47,1.25-11.31,1.22-15.93-.07-9.17-1.11-18.29-1.82-27.42-.31-4,.34-8-.16-12.22-.22-1.84-.44-9.24-3.85-8.9-3.08.31-2.81,8.07-3,10.07-1.4,16.63-1.65,32.54.82,49.15" transform="translate(-215 -39.62)"/><path id="ink-13" data-name="ink" class="cls-2" d="M671.39,485.24c-1.31,6.68-22.63,29.94-28,16.93-3.18-7.72,3.72-16.12,9.1-20.59,3.34-2.77,7.5-5.48,12-4.64,3.85.71,7.69,4.06,6.86,8.3m-11-12c-1.51.35-14.1,9.19-14.21,9.07-1.09-1.09,6.84-12.93,7.66-14,6.73-8.53,11.2-2.07,15.41,4.63-.9-4-3.36-9.81-7.49-11.51-5.2-2.13-9.26,3.14-11.76,6.93-3.54,5.37-5.49,11.19-7.45,17.24a37.14,37.14,0,0,1-3.6,8.1c-1.56,2.56-4.3,5.39-3.9,8.64,2.23-1.24,3.41-3.66,4.81-5.66,1.57.64,1,5.63,1.35,6.9a7.86,7.86,0,0,0,6.36,6.24c6.28,1,13.07-4.79,17.28-8.75,4.43-4.16,9.2-9.87,9.16-16.28,0-6.69-6.63-13.25-13.62-11.59" transform="translate(-215 -39.62)"/><path id="ink-14" data-name="ink" class="cls-2" d="M677.43,365.91c-3.57,5.46-9.83,12-16.46,13.28-4.86.93-8.07-2.67-6.11-7.54,1.65-4.11,7.27-6.71,10.95-8.52,2.93-1.43,16.55-4.77,11.62,2.78M674.8,357c-7.31-.28-13.2,5-18.65,9.23,1.23-4.85,4-10.12,7.93-13.27,5.34-4.29,10.4-1.63,16,.52-1.38-4.38-7.6-5.95-11.57-5.33-5,.78-8.61,5.06-11.14,9.2-3,4.93-4.06,10.75-7.62,15.38-1.62,2.12-11.71,10.05-9.43,13.29l11.31-12c1,4.73,2.05,10.11,8.08,9.65,4.82-.37,10.32-4.46,13.84-7.59,4.55-4.05,13.51-18.62,1.24-19.08" transform="translate(-215 -39.62)"/><path id="ink-15" data-name="ink" class="cls-2" d="M572.41,403.61c-3.09,1.42-9.91,3.36-11.64-.92-2.4-5.94,5.33-16.36,9-20.32,2.26-2.43,3.8-3.69,7-2.12,2.52,1.26,6.23,4.84,7.19,7.59,2.08,5.9-6.68,13.54-11.53,15.77m7.11-28.53c2.52.57,2.83,3.77-.32,2.54-2.37-.92-2.92-3.27.32-2.54m3.16,4.51c-.94-2.87,1-7.38-3.66-7.59-2.63-.11-7.44,2.56-9.73,3.64a16.55,16.55,0,0,0-7.84,7c-1.53,3-.44,3.79,1.91,1.3.28.19-5.3,14.61-5.35,16-.22,6.6,4.45,11,11,9.78,6-1.08,11.47-6,14.79-11a16.77,16.77,0,0,0,3.18-8.48c.2-4.74-3-6.64-4.31-10.75" transform="translate(-215 -39.62)"/><path id="ink-16" data-name="ink" class="cls-2" d="M611.61,377.17c-2.54-4.9,3.35-13.15,8.63-10.74C631.23,371.46,615,383.59,611.61,377.17Zm9.87-6.4c-1.17.05-8.63,2.93-7.53,4.88C615.45,378.33,620.9,371.85,621.48,370.77Z" transform="translate(-215 -39.62)"/><path id="ink-17" data-name="ink" class="cls-2" d="M261,361.71c-.3-2.08-5,1-4.95,2.29.77-1.55,5.56,2.06,4.95-2.29" transform="translate(-215 -39.62)"/><path id="ink-18" data-name="ink" class="cls-2" d="M516.81,204c6-.44-1.64-30.49-6-27.83-4.7,2.88.51,28.23,6,27.83" transform="translate(-215 -39.62)"/><path id="ink-19" data-name="ink" class="cls-2" d="M527.93,190c5.58.8,4.69-12,1.69-14.3-5.54-4.24-8.47,13.33-1.69,14.3" transform="translate(-215 -39.62)"/></g></g></svg>